# xmcd
#
# Track frame offsets:
#	150
#	14410
#	31810
#	51615
#	75500
#	97477
#	111705
#	138097
#	150877
#	175405
#	193605
#	215802
#
# Disc length: 3172 seconds
#
# Revision: 3
# Processed by: cddbd v1.5.2PL0 Copyright (c) Steve Scherf et al.
# Submitted via: EasyCDDAExtractor 11.5.3.1
#
DISCID=aa0c620c
DTITLE=Hayes Carll - Flowers And Liquor
DYEAR=2002
DGENRE=Singer/Songwriter
TTITLE0=Highway 87
TTITLE1=Heaven Above
TTITLE2=Naked Checkers
TTITLE3=Arkansas Blues
TTITLE4=It's A Shame
TTITLE5=Live Free Or Die
TTITLE6=Easy Come Easy Go
TTITLE7=Flowers and Liquor
TTITLE8=Richey Lee
TTITLE9=Perfect Lover
TTITLE10=Lost and Lonely
TTITLE11=Barroom Lament
EXTD=YEAR: 2002
EXTT0=
EXTT1=
EXTT2=
EXTT3=
EXTT4=
EXTT5=
EXTT6=
EXTT7=
EXTT8=
EXTT9=
EXTT10=
EXTT11=
PLAYORDER=
